ffmpeg started on 2026-03-22 at 16:58:23
Report written to "D:\Convert\FFMetrics\reports\psnr_report-6.txt"
Log level: 32
Command line:
ffmpeg -hide_banner -nostdin -r 24000/1001 -i "F:\\Convert\\files\\[DC] Make Heroine ga Oosugiru - 07_Telegram_HEVC(228).mkv" -r 24000/1001 -i "F:\\Convert\\files\\[DC] Make Heroine ga Oosugiru - 07_Telegram.mp4" -lavfi "[0:v]settb=AVTB,setpts=PTS-STARTPTS,format=pix_fmts=yuv420p10le,fps=24000/1001,scale=1920:1080:flags=lanczos:param0=3:out_range=limited:out_color_matrix=bt709:out_chroma_loc=left,setsar=1/1,setdar=(1920/1080)*(1/1),colorspace=format=yuv420p10:range=tv:primaries=bt709:trc=bt709:space=bt709:fast=0[main];[1:v]settb=AVTB,setpts=PTS-STARTPTS,format=pix_fmts=yuv420p,fps=24000/1001,scale=1920:1080:flags=lanczos:param0=3:out_range=limited:out_color_matrix=bt709:out_chroma_loc=left,setsar=1.000,setdar=1.778,colorspace=format=yuv420p:range=tv:primaries=bt709:trc=bt709:space=bt709:fast=0[ref];[main][ref]psnr=eof_action=endall:stats_file='D\\:/Convert/FFMetrics/logs/psnr_logfile-6.txt'" -f null -
Input #0, matroska,webm, from 'F:\Convert\files\[DC] Make Heroine ga Oosugiru - 07_Telegram_HEVC(228).mkv':
  Metadata:
    COMPATIBLE_BRANDS: isomiso2avc1mp41
    MAJOR_BRAND     : isom
    MINOR_VERSION   : 512
    ENCODER         : Lavf61.7.100
  Duration: 00:24:06.79, start: -0.021000, bitrate: 983 kb/s
  Stream #0:0: Video: hevc (Main 10), yuv420p10le(tv, bt709, progressive), 1920x1080 [SAR 1:1 DAR 16:9], 23.98 fps, 23.98 tbr, 1k tbn (default)
      Metadata:
        HANDLER_NAME    : VideoHandler
        VENDOR_ID       : [0][0][0][0]
        ENCODER         : Lavc61.19.100 libx265
        BPS             : 785999
        DURATION        : 00:24:06.569708333
        NUMBER_OF_FRAMES: 34683
        NUMBER_OF_BYTES : 142125400
        _STATISTICS_WRITING_APP: mkvpropedit v94.0 ('Initiate') 64-bit
        _STATISTICS_WRITING_DATE_UTC: 2026-03-21 12:45:59
        _STATISTICS_TAGS: BPS DURATION NUMBER_OF_FRAMES NUMBER_OF_BYTES
  Stream #0:1: Audio: aac (LC), 48000 Hz, stereo, fltp (default)
      Metadata:
        HANDLER_NAME    : SoundHandler
        VENDOR_ID       : [0][0][0][0]
        ENCODER         : Lavc61.19.100 aac
        BPS             : 193194
        DURATION        : 00:24:06.784000000
        NUMBER_OF_FRAMES: 67819
        NUMBER_OF_BYTES : 34938755
        _STATISTICS_WRITING_APP: mkvpropedit v94.0 ('Initiate') 64-bit
        _STATISTICS_WRITING_DATE_UTC: 2026-03-21 12:45:59
        _STATISTICS_TAGS: BPS DURATION NUMBER_OF_FRAMES NUMBER_OF_BYTES
Input #1, mov,mp4,m4a,3gp,3g2,mj2, from 'F:\Convert\files\[DC] Make Heroine ga Oosugiru - 07_Telegram.mp4':
  Metadata:
    major_brand     : isom
    minor_version   : 512
    compatible_brands: isomiso2avc1mp41
    encoder         : Lavf60.16.100
  Duration: 00:24:06.74, start: 0.000000, bitrate: 3764 kb/s
  Stream #1:0[0x1](und): Video: h264 (High) (avc1 / 0x31637661), yuv420p(tv, bt709, progressive), 1920x1080 [SAR 1:1 DAR 16:9], 3616 kb/s, 23.98 fps, 23.98 tbr, 24k tbn (default)
      Metadata:
        handler_name    : VideoHandler
        vendor_id       : [0][0][0][0]
        encoder         : Lavc60.31.102 h264_qsv
  Stream #1:1[0x2](und): Audio: aac (HE-AACv2) (mp4a / 0x6134706D), 48000 Hz, stereo, fltp, 144 kb/s (default)
      Metadata:
        handler_name    : SoundHandler
        vendor_id       : [0][0][0][0]
Stream mapping:
  Stream #0:0 (hevc) -> settb:default
  Stream #1:0 (h264) -> settb:default
  psnr:default -> Stream #0:0 (wrapped_avframe)
  Stream #0:1 -> #0:1 (aac (native) -> pcm_s16le (native))
Output #0, null, to 'pipe:':
  Metadata:
    COMPATIBLE_BRANDS: isomiso2avc1mp41
    MAJOR_BRAND     : isom
    MINOR_VERSION   : 512
    encoder         : Lavf61.7.100
  Stream #0:0: Video: wrapped_avframe, yuv420p10le(tv, bt709, progressive), 1920x1080 [SAR 1:1 DAR 16:9], q=2-31, 200 kb/s, 23.98 fps, 23.98 tbn
      Metadata:
        encoder         : Lavc61.19.100 wrapped_avframe
  Stream #0:1: Audio: pcm_s16le, 48000 Hz, stereo, s16, 1536 kb/s (default)
      Metadata:
        HANDLER_NAME    : SoundHandler
        VENDOR_ID       : [0][0][0][0]
        _STATISTICS_TAGS: BPS DURATION NUMBER_OF_FRAMES NUMBER_OF_BYTES
        BPS             : 193194
        DURATION        : 00:24:06.784000000
        NUMBER_OF_FRAMES: 67819
        NUMBER_OF_BYTES : 34938755
        _STATISTICS_WRITING_APP: mkvpropedit v94.0 ('Initiate') 64-bit
        _STATISTICS_WRITING_DATE_UTC: 2026-03-21 12:45:59
        encoder         : Lavc61.19.100 pcm_s16le
frame=  137 fps=0.0 q=-0.0 size=N/A time=00:00:05.71 bitrate=N/A speed=11.1x    frame=  336 fps=327 q=-0.0 size=N/A time=00:00:14.01 bitrate=N/A speed=13.6x    frame=  542 fps=349 q=-0.0 size=N/A time=00:00:22.60 bitrate=N/A speed=14.5x    frame=  754 fps=362 q=-0.0 size=N/A time=00:00:31.44 bitrate=N/A speed=15.1x    frame=  927 fps=357 q=-0.0 size=N/A time=00:00:38.66 bitrate=N/A speed=14.9x    frame= 1082 fps=348 q=-0.0 size=N/A time=00:00:45.12 bitrate=N/A speed=14.5x    frame= 1244 fps=344 q=-0.0 size=N/A time=00:00:51.88 bitrate=N/A speed=14.3x    frame= 1413 fps=341 q=-0.0 size=N/A time=00:00:58.93 bitrate=N/A speed=14.2x    frame= 1556 fps=334 q=-0.0 size=N/A time=00:01:04.89 bitrate=N/A speed=13.9x    frame= 1712 fps=331 q=-0.0 size=N/A time=00:01:11.40 bitrate=N/A speed=13.8x    frame= 1882 fps=331 q=-0.0 size=N/A time=00:01:18.49 bitrate=N/A speed=13.8x    frame= 2049 fps=330 q=-0.0 size=N/A time=00:01:25.46 bitrate=N/A speed=13.8x    frame= 2162 fps=322 q=-0.0 size=N/A time=00:01:30.17 bitrate=N/A speed=13.4x    frame= 2319 fps=321 q=-0.0 size=N/A time=00:01:36.72 bitrate=N/A speed=13.4x    frame= 2464 fps=318 q=-0.0 size=N/A time=00:01:42.76 bitrate=N/A speed=13.3x    frame= 2601 fps=315 q=-0.0 size=N/A time=00:01:48.48 bitrate=N/A speed=13.1x    frame= 2783 fps=317 q=-0.0 size=N/A time=00:01:56.07 bitrate=N/A speed=13.2x    frame= 2962 fps=319 q=-0.0 size=N/A time=00:02:03.54 bitrate=N/A speed=13.3x    frame= 3172 fps=323 q=-0.0 size=N/A time=00:02:12.29 bitrate=N/A speed=13.5x    frame= 3382 fps=327 q=-0.0 size=N/A time=00:02:21.05 bitrate=N/A speed=13.6x    frame= 3590 fps=331 q=-0.0 size=N/A time=00:02:29.73 bitrate=N/A speed=13.8x    frame= 3797 fps=334 q=-0.0 size=N/A time=00:02:38.36 bitrate=N/A speed=13.9x    frame= 4010 fps=337 q=-0.0 size=N/A time=00:02:47.25 bitrate=N/A speed=14.1x    frame= 4218 fps=340 q=-0.0 size=N/A time=00:02:55.92 bitrate=N/A speed=14.2x    frame= 4421 fps=342 q=-0.0 size=N/A time=00:03:04.39 bitrate=N/A speed=14.3x    frame= 4629 fps=344 q=-0.0 size=N/A time=00:03:13.06 bitrate=N/A speed=14.4x    frame= 4836 fps=346 q=-0.0 size=N/A time=00:03:21.70 bitrate=N/A speed=14.5x    frame= 5040 fps=348 q=-0.0 size=N/A time=00:03:30.21 bitrate=N/A speed=14.5x    frame= 5238 fps=350 q=-0.0 size=N/A time=00:03:38.46 bitrate=N/A speed=14.6x    frame= 5445 fps=351 q=-0.0 size=N/A time=00:03:47.10 bitrate=N/A speed=14.6x    frame= 5657 fps=353 q=-0.0 size=N/A time=00:03:55.94 bitrate=N/A speed=14.7x    frame= 5850 fps=354 q=-0.0 size=N/A time=00:04:03.99 bitrate=N/A speed=14.8x    frame= 6064 fps=356 q=-0.0 size=N/A time=00:04:12.91 bitrate=N/A speed=14.8x    frame= 6269 fps=357 q=-0.0 size=N/A time=00:04:21.46 bitrate=N/A speed=14.9x    frame= 6474 fps=358 q=-0.0 size=N/A time=00:04:30.01 bitrate=N/A speed=14.9x    frame= 6686 fps=359 q=-0.0 size=N/A time=00:04:38.86 bitrate=N/A speed=  15x    frame= 6889 fps=360 q=-0.0 size=N/A time=00:04:47.32 bitrate=N/A speed=  15x    frame= 7087 fps=361 q=-0.0 size=N/A time=00:04:55.58 bitrate=N/A speed=15.1x    frame= 7286 fps=362 q=-0.0 size=N/A time=00:05:03.88 bitrate=N/A speed=15.1x    frame= 7486 fps=362 q=-0.0 size=N/A time=00:05:12.22 bitrate=N/A speed=15.1x    frame= 7669 fps=362 q=-0.0 size=N/A time=00:05:19.86 bitrate=N/A speed=15.1x    frame= 7871 fps=363 q=-0.0 size=N/A time=00:05:28.28 bitrate=N/A speed=15.1x    frame= 8074 fps=364 q=-0.0 size=N/A time=00:05:36.75 bitrate=N/A speed=15.2x    frame= 8274 fps=364 q=-0.0 size=N/A time=00:05:45.09 bitrate=N/A speed=15.2x    frame= 8474 fps=365 q=-0.0 size=N/A time=00:05:53.43 bitrate=N/A speed=15.2x    frame= 8678 fps=365 q=-0.0 size=N/A time=00:06:01.94 bitrate=N/A speed=15.2x    frame= 8877 fps=366 q=-0.0 size=N/A time=00:06:10.24 bitrate=N/A speed=15.3x    frame= 9088 fps=367 q=-0.0 size=N/A time=00:06:19.04 bitrate=N/A speed=15.3x    frame= 9295 fps=367 q=-0.0 size=N/A time=00:06:27.67 bitrate=N/A speed=15.3x    frame= 9492 fps=368 q=-0.0 size=N/A time=00:06:35.89 bitrate=N/A speed=15.3x    frame= 9700 fps=369 q=-0.0 size=N/A time=00:06:44.57 bitrate=N/A speed=15.4x    frame= 9904 fps=369 q=-0.0 size=N/A time=00:06:53.07 bitrate=N/A speed=15.4x    frame=10105 fps=369 q=-0.0 size=N/A time=00:07:01.46 bitrate=N/A speed=15.4x    frame=10307 fps=370 q=-0.0 size=N/A time=00:07:09.88 bitrate=N/A speed=15.4x    frame=10503 fps=370 q=-0.0 size=N/A time=00:07:18.06 bitrate=N/A speed=15.4x    frame=10704 fps=370 q=-0.0 size=N/A time=00:07:26.44 bitrate=N/A speed=15.4x    frame=10897 fps=370 q=-0.0 size=N/A time=00:07:34.49 bitrate=N/A speed=15.4x    frame=11112 fps=371 q=-0.0 size=N/A time=00:07:43.46 bitrate=N/A speed=15.5x    frame=11296 fps=371 q=-0.0 size=N/A time=00:07:51.13 bitrate=N/A speed=15.5x    frame=11497 fps=371 q=-0.0 size=N/A time=00:07:59.52 bitrate=N/A speed=15.5x    frame=11702 fps=372 q=-0.0 size=N/A time=00:08:08.07 bitrate=N/A speed=15.5x    frame=11902 fps=372 q=-0.0 size=N/A time=00:08:16.41 bitrate=N/A speed=15.5x    frame=12109 fps=372 q=-0.0 size=N/A time=00:08:25.04 bitrate=N/A speed=15.5x    frame=12314 fps=373 q=-0.0 size=N/A time=00:08:33.59 bitrate=N/A speed=15.5x    frame=12507 fps=373 q=-0.0 size=N/A time=00:08:41.64 bitrate=N/A speed=15.5x    frame=12704 fps=373 q=-0.0 size=N/A time=00:08:49.86 bitrate=N/A speed=15.6x    frame=12911 fps=373 q=-0.0 size=N/A time=00:08:58.49 bitrate=N/A speed=15.6x    frame=13112 fps=374 q=-0.0 size=N/A time=00:09:06.87 bitrate=N/A speed=15.6x    frame=13309 fps=374 q=-0.0 size=N/A time=00:09:15.09 bitrate=N/A speed=15.6x    frame=13503 fps=374 q=-0.0 size=N/A time=00:09:23.18 bitrate=N/A speed=15.6x    frame=13703 fps=374 q=-0.0 size=N/A time=00:09:31.52 bitrate=N/A speed=15.6x    frame=13907 fps=374 q=-0.0 size=N/A time=00:09:40.03 bitrate=N/A speed=15.6x    frame=14094 fps=374 q=-0.0 size=N/A time=00:09:47.83 bitrate=N/A speed=15.6x    frame=14280 fps=374 q=-0.0 size=N/A time=00:09:55.59 bitrate=N/A speed=15.6x    frame=14486 fps=374 q=-0.0 size=N/A time=00:10:04.18 bitrate=N/A speed=15.6x    frame=14682 fps=374 q=-0.0 size=N/A time=00:10:12.36 bitrate=N/A speed=15.6x    frame=14881 fps=374 q=-0.0 size=N/A time=00:10:20.66 bitrate=N/A speed=15.6x    frame=15072 fps=374 q=-0.0 size=N/A time=00:10:28.62 bitrate=N/A speed=15.6x    frame=15241 fps=374 q=-0.0 size=N/A time=00:10:35.67 bitrate=N/A speed=15.6x    frame=15442 fps=374 q=-0.0 size=N/A time=00:10:44.06 bitrate=N/A speed=15.6x    frame=15644 fps=374 q=-0.0 size=N/A time=00:10:52.48 bitrate=N/A speed=15.6x    frame=15850 fps=374 q=-0.0 size=N/A time=00:11:01.07 bitrate=N/A speed=15.6x    frame=16051 fps=375 q=-0.0 size=N/A time=00:11:09.46 bitrate=N/A speed=15.6x    frame=16256 fps=375 q=-0.0 size=N/A time=00:11:18.01 bitrate=N/A speed=15.6x    frame=16461 fps=375 q=-0.0 size=N/A time=00:11:26.56 bitrate=N/A speed=15.6x    frame=16662 fps=375 q=-0.0 size=N/A time=00:11:34.94 bitrate=N/A speed=15.7x    frame=16869 fps=376 q=-0.0 size=N/A time=00:11:43.57 bitrate=N/A speed=15.7x    frame=17075 fps=376 q=-0.0 size=N/A time=00:11:52.16 bitrate=N/A speed=15.7x    frame=17282 fps=376 q=-0.0 size=N/A time=00:12:00.80 bitrate=N/A speed=15.7x    frame=17484 fps=376 q=-0.0 size=N/A time=00:12:09.22 bitrate=N/A speed=15.7x    frame=17670 fps=376 q=-0.0 size=N/A time=00:12:16.98 bitrate=N/A speed=15.7x    frame=17876 fps=376 q=-0.0 size=N/A time=00:12:25.57 bitrate=N/A speed=15.7x    frame=18080 fps=377 q=-0.0 size=N/A time=00:12:34.08 bitrate=N/A speed=15.7x    frame=18266 fps=377 q=-0.0 size=N/A time=00:12:41.84 bitrate=N/A speed=15.7x    frame=18476 fps=377 q=-0.0 size=N/A time=00:12:50.60 bitrate=N/A speed=15.7x    frame=18674 fps=377 q=-0.0 size=N/A time=00:12:58.86 bitrate=N/A speed=15.7x    frame=18885 fps=377 q=-0.0 size=N/A time=00:13:07.66 bitrate=N/A speed=15.7x    frame=19083 fps=377 q=-0.0 size=N/A time=00:13:15.92 bitrate=N/A speed=15.7x    frame=19298 fps=378 q=-0.0 size=N/A time=00:13:24.88 bitrate=N/A speed=15.8x    frame=19502 fps=378 q=-0.0 size=N/A time=00:13:33.39 bitrate=N/A speed=15.8x    frame=19704 fps=378 q=-0.0 size=N/A time=00:13:41.82 bitrate=N/A speed=15.8x    frame=19915 fps=378 q=-0.0 size=N/A time=00:13:50.62 bitrate=N/A speed=15.8x    frame=20126 fps=379 q=-0.0 size=N/A time=00:13:59.42 bitrate=N/A speed=15.8x    frame=20332 fps=379 q=-0.0 size=N/A time=00:14:08.01 bitrate=N/A speed=15.8x    frame=20525 fps=379 q=-0.0 size=N/A time=00:14:16.06 bitrate=N/A speed=15.8x    frame=20711 fps=379 q=-0.0 size=N/A time=00:14:23.82 bitrate=N/A speed=15.8x    frame=20917 fps=379 q=-0.0 size=N/A time=00:14:32.41 bitrate=N/A speed=15.8x    frame=21132 fps=379 q=-0.0 size=N/A time=00:14:41.38 bitrate=N/A speed=15.8x    frame=21336 fps=379 q=-0.0 size=N/A time=00:14:49.88 bitrate=N/A speed=15.8x    frame=21543 fps=380 q=-0.0 size=N/A time=00:14:58.52 bitrate=N/A speed=15.8x    frame=21739 fps=380 q=-0.0 size=N/A time=00:15:06.69 bitrate=N/A speed=15.8x    frame=21956 fps=380 q=-0.0 size=N/A time=00:15:15.74 bitrate=N/A speed=15.8x    frame=22154 fps=380 q=-0.0 size=N/A time=00:15:24.00 bitrate=N/A speed=15.8x    frame=22366 fps=380 q=-0.0 size=N/A time=00:15:32.84 bitrate=N/A speed=15.9x    frame=22572 fps=380 q=-0.0 size=N/A time=00:15:41.44 bitrate=N/A speed=15.9x    frame=22777 fps=380 q=-0.0 size=N/A time=00:15:49.99 bitrate=N/A speed=15.9x    frame=22974 fps=380 q=-0.0 size=N/A time=00:15:58.20 bitrate=N/A speed=15.9x    frame=23175 fps=381 q=-0.0 size=N/A time=00:16:06.59 bitrate=N/A speed=15.9x    frame=23372 fps=381 q=-0.0 size=N/A time=00:16:14.80 bitrate=N/A speed=15.9x    frame=23585 fps=381 q=-0.0 size=N/A time=00:16:23.69 bitrate=N/A speed=15.9x    frame=23789 fps=381 q=-0.0 size=N/A time=00:16:32.19 bitrate=N/A speed=15.9x    frame=23997 fps=381 q=-0.0 size=N/A time=00:16:40.87 bitrate=N/A speed=15.9x    frame=24189 fps=381 q=-0.0 size=N/A time=00:16:48.88 bitrate=N/A speed=15.9x    frame=24393 fps=381 q=-0.0 size=N/A time=00:16:57.39 bitrate=N/A speed=15.9x    frame=24601 fps=381 q=-0.0 size=N/A time=00:17:06.06 bitrate=N/A speed=15.9x    frame=24815 fps=382 q=-0.0 size=N/A time=00:17:14.99 bitrate=N/A speed=15.9x    frame=25024 fps=382 q=-0.0 size=N/A time=00:17:23.70 bitrate=N/A speed=15.9x    frame=25229 fps=382 q=-0.0 size=N/A time=00:17:32.25 bitrate=N/A speed=15.9x    frame=25438 fps=382 q=-0.0 size=N/A time=00:17:40.97 bitrate=N/A speed=15.9x    frame=25635 fps=382 q=-0.0 size=N/A time=00:17:49.19 bitrate=N/A speed=15.9x    frame=25843 fps=382 q=-0.0 size=N/A time=00:17:57.86 bitrate=N/A speed=15.9x    frame=26055 fps=383 q=-0.0 size=N/A time=00:18:06.71 bitrate=N/A speed=  16x    frame=26247 fps=382 q=-0.0 size=N/A time=00:18:14.71 bitrate=N/A speed=  16x    frame=26455 fps=383 q=-0.0 size=N/A time=00:18:23.39 bitrate=N/A speed=  16x    frame=26649 fps=383 q=-0.0 size=N/A time=00:18:31.48 bitrate=N/A speed=  16x    frame=26865 fps=383 q=-0.0 size=N/A time=00:18:40.49 bitrate=N/A speed=  16x    frame=27046 fps=383 q=-0.0 size=N/A time=00:18:48.04 bitrate=N/A speed=  16x    frame=27235 fps=383 q=-0.0 size=N/A time=00:18:55.92 bitrate=N/A speed=  16x    frame=27433 fps=382 q=-0.0 size=N/A time=00:19:04.18 bitrate=N/A speed=  16x    frame=27631 fps=383 q=-0.0 size=N/A time=00:19:12.44 bitrate=N/A speed=  16x    frame=27827 fps=383 q=-0.0 size=N/A time=00:19:20.61 bitrate=N/A speed=  16x    frame=28021 fps=382 q=-0.0 size=N/A time=00:19:28.70 bitrate=N/A speed=  16x    frame=28223 fps=383 q=-0.0 size=N/A time=00:19:37.13 bitrate=N/A speed=  16x    frame=28420 fps=383 q=-0.0 size=N/A time=00:19:45.35 bitrate=N/A speed=  16x    frame=28621 fps=383 q=-0.0 size=N/A time=00:19:53.73 bitrate=N/A speed=  16x    frame=28805 fps=382 q=-0.0 size=N/A time=00:20:01.40 bitrate=N/A speed=15.9x    frame=28986 fps=382 q=-0.0 size=N/A time=00:20:08.95 bitrate=N/A speed=15.9x    frame=29168 fps=382 q=-0.0 size=N/A time=00:20:16.54 bitrate=N/A speed=15.9x    frame=29354 fps=382 q=-0.0 size=N/A time=00:20:24.30 bitrate=N/A speed=15.9x    frame=29524 fps=381 q=-0.0 size=N/A time=00:20:31.39 bitrate=N/A speed=15.9x    frame=29710 fps=381 q=-0.0 size=N/A time=00:20:39.15 bitrate=N/A speed=15.9x    frame=29887 fps=381 q=-0.0 size=N/A time=00:20:46.53 bitrate=N/A speed=15.9x    frame=30049 fps=381 q=-0.0 size=N/A time=00:20:53.29 bitrate=N/A speed=15.9x    frame=30246 fps=381 q=-0.0 size=N/A time=00:21:01.51 bitrate=N/A speed=15.9x    frame=30446 fps=381 q=-0.0 size=N/A time=00:21:09.85 bitrate=N/A speed=15.9x    frame=30642 fps=381 q=-0.0 size=N/A time=00:21:18.02 bitrate=N/A speed=15.9x    frame=30849 fps=381 q=-0.0 size=N/A time=00:21:26.66 bitrate=N/A speed=15.9x    frame=31054 fps=381 q=-0.0 size=N/A time=00:21:35.21 bitrate=N/A speed=15.9x    frame=31244 fps=381 q=-0.0 size=N/A time=00:21:43.13 bitrate=N/A speed=15.9x    frame=31449 fps=381 q=-0.0 size=N/A time=00:21:51.68 bitrate=N/A speed=15.9x    frame=31648 fps=381 q=-0.0 size=N/A time=00:21:59.98 bitrate=N/A speed=15.9x    frame=31834 fps=381 q=-0.0 size=N/A time=00:22:07.74 bitrate=N/A speed=15.9x    frame=32030 fps=381 q=-0.0 size=N/A time=00:22:15.91 bitrate=N/A speed=15.9x    frame=32224 fps=381 q=-0.0 size=N/A time=00:22:24.00 bitrate=N/A speed=15.9x    frame=32429 fps=381 q=-0.0 size=N/A time=00:22:32.55 bitrate=N/A speed=15.9x    frame=32620 fps=381 q=-0.0 size=N/A time=00:22:40.52 bitrate=N/A speed=15.9x    frame=32775 fps=380 q=-0.0 size=N/A time=00:22:46.99 bitrate=N/A speed=15.9x    frame=32942 fps=380 q=-0.0 size=N/A time=00:22:53.95 bitrate=N/A speed=15.8x    frame=33129 fps=380 q=-0.0 size=N/A time=00:23:01.75 bitrate=N/A speed=15.8x    frame=33327 fps=380 q=-0.0 size=N/A time=00:23:10.01 bitrate=N/A speed=15.8x    frame=33495 fps=380 q=-0.0 size=N/A time=00:23:17.02 bitrate=N/A speed=15.8x    frame=33653 fps=379 q=-0.0 size=N/A time=00:23:23.61 bitrate=N/A speed=15.8x    frame=33792 fps=379 q=-0.0 size=N/A time=00:23:29.40 bitrate=N/A speed=15.8x    frame=33928 fps=378 q=-0.0 size=N/A time=00:23:35.08 bitrate=N/A speed=15.8x    frame=34097 fps=378 q=-0.0 size=N/A time=00:23:42.12 bitrate=N/A speed=15.7x    frame=34258 fps=377 q=-0.0 size=N/A time=00:23:48.84 bitrate=N/A speed=15.7x    frame=34385 fps=376 q=-0.0 size=N/A time=00:23:54.14 bitrate=N/A speed=15.7x    frame=34552 fps=376 q=-0.0 size=N/A time=00:24:01.10 bitrate=N/A speed=15.7x    [Parsed_psnr_16 @ 000001673e241700] PSNR y:48.977410 u:50.341906 v:50.392973 average:49.393183 min:38.024394 max:inf
[out#0/null @ 0000016730d1e740] video:14903KiB audio:271276KiB subtitle:0KiB other streams:0KiB global headers:0KiB muxing overhead: unknown
frame=34683 fps=376 q=-0.0 Lsize=N/A time=00:24:06.57 bitrate=N/A speed=15.7x    
